<svg width="109" height="24" viewBox="0 0 109 24" fill="none" xmlns="http://www.w3.org/2000/svg">
<path fill-rule="evenodd" clip-rule="evenodd" d="M6.61952 0.491606C6.41934 0.240103 6.03727 0.240103 5.8371 0.491606L0.108788 7.68871C-0.0362624 7.87095 -0.0362629 8.12921 0.108788 8.31145L6.22831 16.0001L12.2044 23.5086C12.4046 23.7601 12.7867 23.7601 12.9869 23.5086L18.7152 16.3115C18.8602 16.1292 18.8602 15.871 18.7152 15.6887L12.5957 8.00008H24.2933C24.712 8.00008 24.9453 7.51629 24.6846 7.18871L19.3542 0.491606C19.154 0.240103 18.772 0.240103 18.5718 0.491606L12.5957 8.00008L6.61952 0.491606Z" fill="white"/>
<path d="M32.7949 0.716064H36.8249L42.8079 18.7271H42.9009L48.9149 0.716064H52.9449L45.0709 22.8191L40.6069 22.8501L32.7949 0.716064Z" fill="white"/>
<path d="M66.5454 18.1071C65.6154 21.3621 62.8564 23.2841 59.0434 23.2841C54.2384 23.2841 50.9834 19.8431 50.9834 14.7901C50.9834 9.92307 54.3934 6.38907 59.0434 6.38907C64.5304 6.38907 66.7624 10.6051 66.7934 15.1621C66.7934 15.3171 66.7934 15.5651 66.7624 15.8441H54.4244C54.7034 18.6651 56.5014 20.4011 59.0434 20.4011C60.8724 20.4011 62.4224 19.6881 62.9804 18.1071H66.5454ZM54.4554 13.3021H63.2594C63.0424 11.0081 61.7094 9.17907 59.0434 9.17907C56.5014 9.17907 54.7964 10.8221 54.4554 13.3021Z" fill="white"/>
<path d="M77.4952 11.6281C77.3092 9.83007 75.8832 9.11707 74.4262 9.11707C73.0002 9.11707 71.7912 9.92307 71.7912 11.0391C71.7912 12.1551 72.7522 12.8061 74.3952 13.2091C75.1082 13.3951 75.8212 13.5501 76.5342 13.7671C79.1382 14.4491 81.1842 15.7201 81.1842 18.2621C81.1842 21.4551 78.0222 23.2841 74.6122 23.2841C71.3882 23.2841 68.1952 21.7961 67.8542 17.9521H71.3882C71.6982 19.7191 72.7832 20.5251 74.6432 20.5251C76.1622 20.5251 77.6502 19.9361 77.6502 18.4481C77.6502 17.1461 76.4102 16.7121 75.0772 16.3711C74.3022 16.1851 73.5272 15.9991 72.7832 15.7821C70.2102 15.1001 68.3192 13.6431 68.3192 11.1631C68.3192 8.24907 71.2022 6.38907 74.4882 6.38907C77.9292 6.38907 80.5642 8.15607 80.9362 11.6281H77.4952Z" fill="white"/>
<path d="M87.5436 17.3321C87.5436 19.0681 88.0396 19.9981 89.5896 19.9981H90.6436V22.8811L88.9076 22.9121C85.2186 22.9431 84.0096 20.7421 84.0096 17.7661V9.61306H81.4986V6.82307H84.0096V3.16506L87.5436 1.58406V6.82307H90.6746V9.61306H87.5436V17.3321Z" fill="white"/>
<path d="M99.8523 23.2841C95.1093 23.2841 91.5753 19.8741 91.5753 14.8521C91.5753 9.83006 95.1093 6.38907 99.8523 6.38907C104.564 6.38907 108.098 9.83006 108.098 14.8521C108.098 19.8741 104.564 23.2841 99.8523 23.2841ZM95.0783 14.8521C95.0783 17.8901 96.9693 20.3701 99.8523 20.3701C102.704 20.3701 104.595 17.8901 104.595 14.8521C104.595 11.7831 102.704 9.30307 99.8523 9.30307C96.9693 9.30307 95.0783 11.7831 95.0783 14.8521Z" fill="white"/>
</svg>
